<svg version="1" xmlns="http://www.w3.org/2000/svg" width="346.667" height="346.667" viewBox="0 0 260.000000 260.000000"><path d="M152.5 6.7c-1.1.3-2.5.9-3.1 1.4-.6.5-2.5 1-4.3 1.1-1.8.1-3.5.6-3.7 1-.3.4-1.3.8-2.3.8-1 0-4.5.9-7.8 2-3.4 1.1-6.9 2.1-7.9 2.3-1.1.2-2.6.6-3.4.9-1.4.6-11.3 3.3-15.5 4.4-2.8.7-3.8 1-5.5 1.7-.8.3-5.1 1.5-9.5 2.7-4.4 1.1-8.7 2.3-9.5 2.5-6.6 1.8-23.8 6.7-25 7-.8.3-3.8 1.1-6.7 1.9-6.1 1.7-9.6 3.8-11.1 6.9-.7 1.2-7.9 28.3-16 60.2-12.7 50-14.7 58.5-13.9 61.7.8 3.1 6.2 8.9 31.9 34 52 50.9 54.9 53.6 59.1 54.7 3 .7 5.4.5 11-1.1 4-1.1 7.9-2.1 8.7-2.3.8-.2 5.6-1.6 10.5-3 5-1.4 10.1-2.8 11.5-3.1 1.4-.3 5.2-1.4 8.4-2.5 3.3-1 6.7-1.9 7.6-1.9.9 0 2.1-.5 2.8-1.2.7-.7 1.2-.9 1.2-.6 0 .4 1.5.2 3.3-.3 1.7-.6 3.9-1.2 4.7-1.4 3-.8 23.5-6.6 25-7 8-2.4 23.8-6.7 24.8-6.7.7-.1 2.5-1.5 4-3.2 2.4-2.7 4.7-10.9 17.6-61.4 11-43.6 14.6-59.2 14.2-61.7-.6-3.2-15.5-18.3-76.5-77.3-12.9-12.6-16.6-14.4-24.6-12.5zm39.6 60.5c.5.7.9 1.7 1 2.3.1 2 .7 4.2 3.3 12.7 1.5 4.8 2.9 9.5 3 10.5.2 1 1.3 4.9 2.4 8.8 4 13.4 11.4 40 11.8 42.2.2 1.2.8 3.3 1.3 4.5.4 1.3.6 3.1.2 4-.3.9-11.4 12.8-24.6 26.3-34.4 35.4-36.5 37.5-37.7 37.5-.5 0-19.7-4.8-42.5-10.6-37-9.4-44-11.5-43.9-13.4 0-.6-4.2-16.1-6-22.1-.8-2.5-1.6-5.4-1.8-6.5-.2-1-1.6-6-3.1-10.9-1.4-5-2.8-9.7-3-10.5-.5-2.4-4.7-17.4-5.3-19-.3-.8-.7-2.4-.9-3.4-.2-1.1-1-3.8-1.7-6-.9-2.6-1.1-4.7-.5-5.8.5-.9 7.2-8.1 14.9-15.9 7.7-7.8 14-14.6 14-15 0-.5.7-.9 1.5-.9s1.5-.3 1.5-.8c0-.4 6.7-7.5 14.8-15.9l14.9-15.2L148.5 55c23.6 6 43.2 11.5 43.6 12.2z"/></svg>